<svg id="Layer_1" data-name="Layer 1" xmlns="http://www.w3.org/2000/svg" viewBox="0 0 717.61 358.47"><defs><style>.cls-1{fill:#06b6d4;}.cls-2{fill:#ccc;}.cls-3{fill:#fff;}.cls-4{opacity:0.5;}</style></defs><rect class="cls-1" x="359.14" width="358.47" height="358.47" rx="57.46"/><path class="cls-2" d="M39.62,226.51H12.41A12.16,12.16,0,0,1,0,214.52V142.47a12.16,12.16,0,0,1,12.41-12H34.69c14,0,29.33,7.9,29.33,24.39,0,9.17-3.81,16.64-11.71,20.31v.28c14,3.53,19.6,12.13,19.6,24.82C71.91,218.19,55.42,226.51,39.62,226.51Zm-9.44-76H24.82v17.21h4.23c3.1,0,10-.85,10-9.45C39.06,153.32,35.25,150.5,30.18,150.5ZM32,187.59H24.82v18.75H34c6.63,0,12.13-1.27,12.55-9.3C46.53,191.25,42.58,187.59,32,187.59Z"/><path class="cls-2" d="M87.28,140.49a11.42,11.42,0,0,1,22.84,0v76.43a11.43,11.43,0,0,1-22.84,0Z"/><path class="cls-2" d="M136.07,168.69c6.34-5.5,15.08-8.46,24.39-8.46s18,3,24.39,8.46c6.91,5.78,11.14,14.67,11.14,25.38s-4.23,19.6-11.14,25.39c-6.34,5.5-15.08,8.46-24.39,8.46s-18.05-3-24.39-8.46c-6.91-5.79-11.14-14.67-11.14-25.39S129.16,174.47,136.07,168.69Zm15.51,36.95a12.28,12.28,0,0,0,17.76,0,18.4,18.4,0,0,0,0-23.13,12.28,12.28,0,0,0-17.76,0,18.4,18.4,0,0,0,0,23.13Z"/><path class="cls-2" d="M258.46,182.93c-2.82,0-4.52-1-6.91-1.83a17.83,17.83,0,0,0-7.05-1.69,14,14,0,0,0-10.3,4,15.05,15.05,0,0,0-3.95,10.57,16,16,0,0,0,3.67,10.86c2.4,2.68,5.92,4.23,10.58,4.23a25.82,25.82,0,0,0,7.47-1.27c2.82-1,3.95-2,7-2a9.14,9.14,0,0,1,9,9.3c0,5.5-4.37,8.75-11.56,11a42.5,42.5,0,0,1-12.69,1.84c-12.41,0-22.14-3.81-28.48-10.72C210,211.42,207,203.38,207,193.93a32.06,32.06,0,0,1,6.91-20.58c6.77-8.46,17.76-13.12,30.45-13.12a37.53,37.53,0,0,1,14.81,3c5.5,2.4,8.6,5.5,8.6,10.58A9.26,9.26,0,0,1,258.46,182.93Z"/><path class="cls-2" d="M326.14,188.86l15.65,22.28a10.13,10.13,0,0,1,1.69,5.64,11.38,11.38,0,0,1-11.28,11.14,10.47,10.47,0,0,1-8.89-4.8L310.2,203,303.29,209v7.9c0,6.06-5.36,11-11.42,11a11.2,11.2,0,0,1-11.42-11V140.49a11.42,11.42,0,0,1,22.84,0v42.44l20.73-20a9.93,9.93,0,0,1,6.91-2.68,10.64,10.64,0,0,1,10.57,10.58,9.76,9.76,0,0,1-3,7.19Z"/><path class="cls-3" d="M444.69,130.48a11,11,0,0,1,0,22H407.32v14.66h31.3a11,11,0,0,1,0,22h-31.3v26.79c0,6.63-5.78,12-12.41,12a12.25,12.25,0,0,1-12.41-12V142.46a12.25,12.25,0,0,1,12.41-12Z"/><path class="cls-3" d="M514.62,215.37c0,4.65-3.1,7.75-9.3,10s-12.13,2.54-17.49,2.54c-11,0-19.74-3.25-25.8-9-6.49-6.06-10-15.09-10-25.66A33.78,33.78,0,0,1,461.89,169c5.64-5.5,13.68-8.74,23.83-8.74,10.71,0,18.33,3.39,23.4,8.46a27.44,27.44,0,0,1,8.18,19.88c0,7.05-4.09,11.43-11,11.43H476a13.15,13.15,0,0,0,3.8,7.05c2.26,2.11,5.5,3.24,9.59,3.24A25,25,0,0,0,497.7,209c3.39-1.13,5.5-2.68,8.46-2.68C511.1,206.34,514.62,210.43,514.62,215.37Zm-19.45-29.05a9.9,9.9,0,0,0-2.26-5.78c-1.55-1.84-4-2.82-7.05-2.82-2.82,0-5.64.84-7.19,2.53a11.49,11.49,0,0,0-2.68,6.07Z"/><path class="cls-3" d="M584.56,215.37c0,4.65-3.1,7.75-9.31,10s-12.12,2.54-17.48,2.54c-11,0-19.74-3.25-25.81-9-6.48-6.06-10-15.09-10-25.66A33.82,33.82,0,0,1,531.82,169c5.64-5.5,13.68-8.74,23.83-8.74,10.72,0,18.33,3.39,23.41,8.46a27.44,27.44,0,0,1,8.18,19.88c0,7.05-4.09,11.43-11,11.43H545.92a13.22,13.22,0,0,0,3.81,7.05c2.26,2.11,5.5,3.24,9.59,3.24a25,25,0,0,0,8.32-1.27c3.38-1.13,5.5-2.68,8.46-2.68C581,206.34,584.56,210.43,584.56,215.37ZM565.1,186.32a9.82,9.82,0,0,0-2.25-5.78c-1.56-1.84-4-2.82-7.06-2.82-2.82,0-5.64.84-7.19,2.53a11.56,11.56,0,0,0-2.68,6.07Z"/><g class="cls-4"><rect class="cls-3" x="487.31" y="128" width="322.38" height="102.46" rx="42.7" transform="translate(469.27 827.73) rotate(-90)"/></g></svg>