<svg
  id="Layer_4"
  data-name="Layer 4"
  xmlns="http://www.w3.org/2000/svg"
  viewBox="0 0 632.28 633.9"
><defs><style
    >.cls-1{fill:none;stroke:#06b6d4;stroke-linecap:round;stroke-linejoin:round;stroke-width:11px;}.cls-2{fill:#06b6d4;}</style></defs><path
    class="cls-1"
    d="M466.14,210.7a150,150,0,0,0-150-150V5.5H274.88V60.7H253.64V5.5H212.38V60.7H166.14V573.2h46.24v55.2h41.26V573.2h21.24v55.2h41.26V573.2A150,150,0,0,0,422,317,149.51,149.51,0,0,0,466.14,210.7Zm-150,275h-62.5v-125h62.5a62.5,62.5,0,0,1,0,125Zm0-212.5h-62.5v-125h62.5a62.5,62.5,0,0,1,0,125Z"
  /><path
    class="cls-1"
    d="M378.64,210.7a62.5,62.5,0,0,1-62.5,62.5h-62.5v-125h62.5A62.5,62.5,0,0,1,378.64,210.7Z"
  /><path
    class="cls-1"
    d="M378.64,423.2a62.5,62.5,0,0,1-62.5,62.5h-62.5v-125h62.5A62.5,62.5,0,0,1,378.64,423.2Z"
  /><polyline
    class="cls-1"
    points="232.28 32.47 232.28 87.48 189.14 130.62 189.14 316.95"
  /><circle class="cls-2" cx="189.14" cy="316.95" r="12.61" /><polyline
    class="cls-1"
    points="219.34 168.38 219.34 148.2 257.25 110.29 303.48 110.29"
  /><circle class="cls-2" cx="308.06" cy="110.29" r="12.61" /><polyline
    class="cls-1"
    points="219.34 210.7 219.34 365.77 189.14 395.97 189.14 536.2"
  /><circle class="cls-2" cx="219.34" cy="207.48" r="12.61" /><circle
    class="cls-2"
    cx="189.14"
    cy="536.2"
    r="12.61"
  /><polyline
    class="cls-1"
    points="219.34 431.57 219.34 504.92 232.28 517.86 232.28 600.92"
  /><circle class="cls-2" cx="219.34" cy="431.57" r="12.61" /><path
    class="cls-1"
    d="M293.77,32.47V82.08h29.12c46.08,4.57,85.55,28.67,97.08,62"
  /><circle class="cls-2" cx="419.97" cy="148.2" r="12.61" /></svg>
